<svg width="180" height="180" viewBox="0 0 180 180" stroke="#888888" stroke-width="5" fill="none" xmlns="http://www.w3.org/2000/svg">
<circle cx="90" cy="90" r="82" fill="#888888"/>
<path fill-rule="evenodd" clip-rule="evenodd" d="M41.8915 156.412C41.7643 154.979 41.6994 153.528 41.6994 152.062C41.6994 125.23 63.4503 103.479 90.2815 103.479C117.113 103.479 138.864 125.23 138.864 152.062C138.864 153.378 138.811 154.682 138.709 155.972C158.905 141.036 172 117.047 172 90C172 44.7127 135.287 8 90 8C44.7127 8 8 44.7127 8 90C8 117.314 21.355 141.51 41.8915 156.412ZM120.89 66.9725C120.89 84.0328 107.059 97.8629 89.9992 97.8629C72.9389 97.8629 59.1088 84.0328 59.1088 66.9725C59.1088 49.9122 72.9389 36.0821 89.9992 36.0821C107.059 36.0821 120.89 49.9122 120.89 66.9725Z" fill="#EEEEEE"/>
</svg>
